<svg width="374" height="243" viewBox="0 0 374 243" fill="none" xmlns="http://www.w3.org/2000/svg">
<rect y="170" width="374" height="73" rx="15" fill="#1F6F54"/>
<rect width="374" height="210" rx="15" fill="#3FBF7F"/>
<rect x="187" y="210" width="52" height="33" fill="#CC8139"/>
<rect x="187" width="52" height="210" fill="#FFCA25"/>
<path d="M96.16 158.92C87.84 158.92 80.48 156.84 74.08 152.68C67.7867 148.52 62.8267 142.547 59.2 134.76C55.68 126.867 53.92 117.373 53.92 106.28C53.92 95.1867 55.7333 85.6933 59.36 77.8C63.0933 69.9067 68.2667 63.8267 74.88 59.56C81.6 55.2933 89.3867 53.16 98.24 53.16C103.68 53.16 108.8 54.3333 113.6 56.68C118.4 59.0267 122.453 62.0133 125.76 65.64L116.64 74.44C114.08 71.7733 111.253 69.64 108.16 68.04C105.067 66.44 101.6 65.64 97.76 65.64C91.7867 65.64 86.72 67.2933 82.56 70.6C78.5067 73.8 75.4133 78.44 73.28 84.52C71.1467 90.4933 70.08 97.5867 70.08 105.8C70.08 114.12 71.1467 121.32 73.28 127.4C75.4133 133.48 78.4533 138.173 82.4 141.48C86.4533 144.68 91.36 146.28 97.12 146.28C101.493 146.28 105.333 145.373 108.64 143.56C111.947 141.747 115.093 139.133 118.08 135.72L127.2 144.04C123.147 148.733 118.56 152.413 113.44 155.08C108.427 157.64 102.667 158.92 96.16 158.92ZM44.64 101.16V93.16L56 92.36H116.48V101.16H44.64ZM44.64 119.88V111.88L55.84 111.08H110.08V119.88H44.64Z" fill="#EDE7E7"/>
<path d="M269.8 143.76L277 132.88C281.267 135.867 285.8 138.427 290.6 140.56C295.507 142.587 300.84 143.6 306.6 143.6C312.253 143.6 316.52 142.48 319.4 140.24C322.387 137.893 323.88 134.907 323.88 131.28C323.88 128.293 322.653 125.787 320.2 123.76C317.853 121.733 314.813 119.92 311.08 118.32C307.347 116.72 303.347 115.12 299.08 113.52C294.813 111.92 290.813 110.053 287.08 107.92C283.347 105.787 280.253 103.12 277.8 99.92C275.453 96.72 274.28 92.8267 274.28 88.24C274.28 83.12 275.613 78.6933 278.28 74.96C281.053 71.12 284.893 68.1867 289.8 66.16C294.707 64.1333 300.307 63.12 306.6 63.12C313.747 63.12 319.667 64.3467 324.36 66.8C329.053 69.1467 333.213 72.1333 336.84 75.76L328.68 85.04C325.053 82.16 321.533 79.9733 318.12 78.48C314.813 76.88 310.6 76.08 305.48 76.08C300.573 76.08 296.68 77.1467 293.8 79.28C291.027 81.4133 289.64 84.2933 289.64 87.92C289.64 90.48 290.813 92.72 293.16 94.64C295.613 96.4533 298.707 98.1067 302.44 99.6C306.28 100.987 310.28 102.48 314.44 104.08C318.707 105.68 322.707 107.6 326.44 109.84C330.28 111.973 333.373 114.693 335.72 118C338.173 121.2 339.4 125.253 339.4 130.16C339.4 135.387 337.96 139.973 335.08 143.92C332.2 147.867 328.147 150.96 322.92 153.2C317.693 155.44 311.56 156.56 304.52 156.56C300.36 156.56 296.093 156.027 291.72 154.96C287.453 153.787 283.453 152.24 279.72 150.32C275.987 148.4 272.68 146.213 269.8 143.76ZM300.36 68.72V42.48H311.4V68.72H300.36ZM300.36 150.64H311.4V179.6H300.36V150.64Z" fill="#EDE7E7"/>
</svg>
